<?xml version="1.0" ?><svg viewBox="0 0 64 64" xmlns="http://www.w3.org/2000/svg"><title/><g data-name="Day 29" id="fd27738a-9384-4dfb-ab72-9e84973440a7"><g data-name="&lt;Group&gt;" id="c1119417-1d88-4b2f-8492-a117068748f2"><rect data-name="Rectangle-path" fill="#fbcab5" height="13.22" id="13e90085-66f9-4185-89e4-3ba9dd6d4208" rx="2.46" ry="2.46" transform="translate(-6.16 23.44) rotate(-45)" width="5.2" x="22.61" y="12.55"/><rect data-name="Rectangle-path" fill="#fbcab5" height="18.45" id="2b819bac-113d-472e-b6bb-af5558f4d8f5" rx="2.46" ry="2.46" transform="translate(-11.02 24.54) rotate(-45)" width="5.2" x="21.51" y="16.35"/><rect data-name="Rectangle-path" fill="#fbcab5" height="10.62" id="31355db8-12fa-4725-91d3-0ac94b56ee75" rx="2.46" ry="2.46" transform="translate(-19.21 22.69) rotate(-45)" width="5.2" x="15.18" y="29.22"/><path d="M32.72,59.53h9.83V51.27l7.37-7.56V33.84l-9.36-9.89s-3.8-.61-3.77,0-2.46,3.08-.54,5,5.45,6.12,5.45,6.12l.15,5.21L32.33,53.41H22.89v6.12Z" data-name="Shape" fill="#fbcab5" id="043b767c-8362-453c-84f5-935dfcb362dc"/><rect data-name="&lt;Rectangle&gt;" fill="#e39f81" height="6" id="32587656-2878-41a9-8503-d960ff2013c8" width="8" x="22" y="53.47"/><rect data-name="Rectangle-path" fill="none" height="13.22" id="1f44d87e-dd56-4910-aade-219d22e41773" rx="2.46" ry="2.46" stroke="#001c63" stroke-linecap="round" stroke-linejoin="round" stroke-width="2" transform="translate(-6.16 23.44) rotate(-45)" width="5.2" x="22.61" y="12.55"/><rect data-name="Rectangle-path" fill="none" height="10.62" id="3dc9502d-f256-43ed-9808-bc83e81cc553" rx="2.46" ry="2.46" stroke="#001c63" stroke-linecap="round" stroke-linejoin="round" stroke-width="2" transform="translate(-19.21 22.69) rotate(-45)" width="5.2" x="15.18" y="29.22"/><path d="M25.65,42.66H15.31a2.46,2.46,0,0,1-2.46-2.45v-.29a2.46,2.46,0,0,1,2.46-2.45h1.76" data-name="Shape" fill="none" id="62a096aa-73eb-4346-a319-ca2c3c82ad42" stroke="#001c63" stroke-linecap="round" stroke-linejoin="round" stroke-width="2"/><path d="M23.81,47.85h-6a2.46,2.46,0,0,1-2.46-2.45v-.29a2.46,2.46,0,0,1,2.46-2.45h5.12" data-name="Shape" fill="none" id="b683da5a-6c79-4a02-abe0-aef7e84dd74f" stroke="#001c63" stroke-linecap="round" stroke-linejoin="round" stroke-width="2"/><path d="M27.65,47.85H21.13a2.46,2.46,0,0,0-2.46,2.45v.29A2.46,2.46,0,0,0,21.13,53h11.2l5.83-6.94" data-name="Shape" fill="none" id="ced3ab25-9ef1-40f3-85be-d131cc9292d3" stroke="#001c63" stroke-linecap="round" stroke-linejoin="round" stroke-width="2"/><rect data-name="Rectangle-path" fill="none" height="18.45" id="f1f535fc-75fd-4e36-9c0e-7798e17f754c" rx="2.46" ry="2.46" stroke="#001c63" stroke-linecap="round" stroke-linejoin="round" stroke-width="2" transform="translate(-11.02 24.54) rotate(-45)" width="5.2" x="21.51" y="16.35"/><rect data-name="Rectangle-path" fill="#fbcab5" height="18.45" id="a2d8f81b-25a8-4de3-87bc-852520398169" rx="2.46" ry="2.46" transform="translate(-15.6 24.99) rotate(-45)" width="5.2" x="19.77" y="22.1"/><rect data-name="Rectangle-path" fill="none" height="18.45" id="488248b4-26ad-4a7d-b27b-20f6a6a89745" rx="2.46" ry="2.46" stroke="#001c63" stroke-linecap="round" stroke-linejoin="round" stroke-width="2" transform="translate(-15.6 24.99) rotate(-45)" width="5.2" x="19.77" y="22.1"/><path d="M42.55,59.53V52.19l6.93-7.32a6.12,6.12,0,0,0,1.68-4.2V35.91a3.61,3.61,0,0,0-1-2.53l-8.66-8.81a3.27,3.27,0,0,0-4.64,0h0a3.24,3.24,0,0,0,0,4.59L41.68,34a4.46,4.46,0,0,1,1,2.46A8.16,8.16,0,0,1,42.38,40" data-name="Shape" fill="none" id="47cb1993-6c57-48a8-8ac1-398e634494f3" stroke="#001c63" stroke-linecap="round" stroke-linejoin="round" stroke-width="2"/><path d="M42.55,4.47v9.22A5.08,5.08,0,0,0,45,18h0a5.08,5.08,0,0,1,2.46,4.35v7.84" data-name="Shape" fill="none" id="08ac3c5e-c8cf-4d84-8120-1a99e702da40" stroke="#001c63" stroke-linecap="round" stroke-linejoin="round" stroke-width="2"/><path d="M24.12,4.47v9.79" data-name="Shape" fill="none" id="55a4c838-4e22-4e50-826a-c52685878fff" stroke="#001c63" stroke-linecap="round" stroke-linejoin="round" stroke-width="2"/><path d="M27.85,47.85l7.6-8.28" data-name="Shape" fill="none" id="bc8f499a-8475-4bf6-a344-f9758444916b" stroke="#001c63" stroke-linecap="round" stroke-linejoin="round" stroke-width="2"/><path d="M22.89,59.53V53.41" data-name="Shape" fill="none" id="2e8f3ef6-ad8f-4626-b312-b3bfc384582d" stroke="#001c63" stroke-linecap="round" stroke-linejoin="round" stroke-width="2"/></g></g></svg>